<svg xmlns="http://www.w3.org/2000/svg" viewBox="0 0 100 100" preserveAspectRatio="xMidYMid meet"><defs><radialGradient id="b" cx="0.35" cy="0.3" r="0.9"><stop offset="0" stop-color="#1f9a5a"/><stop offset="1" stop-color="#063a1e"/></radialGradient></defs><circle cx="50" cy="50" r="47" fill="url(#b)" stroke="#fff" stroke-opacity=".7" stroke-width="2.5"/><circle cx="50" cy="50" r="42" fill="none" stroke="#fff" stroke-opacity=".22"/><g fill="#2fbf5a" stroke="#0f6a30" stroke-width="2.5"><path d="M50 50C36 40 36 22 46 22c3 0 4 4 4 4s1-4 4-4c10 0 10 18-4 28z" transform="rotate(0 50 50)"/><path d="M50 50C36 40 36 22 46 22c3 0 4 4 4 4s1-4 4-4c10 0 10 18-4 28z" transform="rotate(120 50 50)"/><path d="M50 50C36 40 36 22 46 22c3 0 4 4 4 4s1-4 4-4c10 0 10 18-4 28z" transform="rotate(240 50 50)"/></g><path d="M50 50Q54 68 62 80" stroke="#0f6a30" stroke-width="4" fill="none" stroke-linecap="round"/><circle cx="50" cy="50" r="4" fill="#0f6a30"/></svg>