<svg xmlns="http://www.w3.org/2000/svg" viewBox="0 0 1200 520" preserveAspectRatio="xMidYMid slice"><defs><linearGradient id="s" x1="0" y1="0" x2="0" y2="1"><stop offset="0" stop-color="#060c2a"/><stop offset="0.6" stop-color="#14245a"/><stop offset="1" stop-color="#2a3f88"/></linearGradient><radialGradient id="spot" cx="0.5" cy="0.5" r="0.5"><stop offset="0" stop-color="rgba(200,220,255,.35)"/><stop offset="1" stop-color="rgba(200,220,255,0)"/></radialGradient><linearGradient id="vel" x1="0" y1="0" x2="0" y2="1"><stop offset="0" stop-color="#5a0f1e"/><stop offset="1" stop-color="#2a0610"/></linearGradient></defs><rect width="1200" height="520" fill="url(#s)"/><circle cx="311" cy="219" r="1.5" fill="#fff" opacity="0.90"/><circle cx="223" cy="74" r="0.8" fill="#fff" opacity="0.50"/><circle cx="881" cy="42" r="1.3" fill="#fff" opacity="0.49"/><circle cx="354" cy="138" r="1.7" fill="#fff" opacity="0.75"/><circle cx="17" cy="88" r="0.8" fill="#fff" opacity="0.92"/><circle cx="972" cy="258" r="1.7" fill="#fff" opacity="0.83"/><circle cx="1139" cy="254" r="0.9" fill="#fff" opacity="0.90"/><circle cx="584" cy="242" r="1.3" fill="#fff" opacity="0.63"/><circle cx="437" cy="138" r="1.0" fill="#fff" opacity="0.43"/><circle cx="984" cy="255" r="1.9" fill="#fff" opacity="0.80"/><circle cx="665" cy="239" r="0.8" fill="#fff" opacity="0.79"/><circle cx="532" cy="57" r="0.9" fill="#fff" opacity="0.69"/><circle cx="304" cy="147" r="1.4" fill="#fff" opacity="0.61"/><circle cx="157" cy="157" r="0.9" fill="#fff" opacity="0.50"/><circle cx="233" cy="117" r="0.7" fill="#fff" opacity="0.77"/><circle cx="1144" cy="125" r="1.5" fill="#fff" opacity="0.96"/><circle cx="52" cy="45" r="1.6" fill="#fff" opacity="0.89"/><circle cx="767" cy="51" r="1.1" fill="#fff" opacity="0.91"/><circle cx="1063" cy="257" r="0.9" fill="#fff" opacity="0.90"/><circle cx="450" cy="229" r="0.8" fill="#fff" opacity="0.98"/><circle cx="724" cy="231" r="0.9" fill="#fff" opacity="0.75"/><circle cx="697" cy="189" r="1.1" fill="#fff" opacity="0.82"/><circle cx="410" cy="95" r="0.8" fill="#fff" opacity="0.79"/><circle cx="135" cy="72" r="0.7" fill="#fff" opacity="0.77"/><circle cx="667" cy="174" r="0.7" fill="#fff" opacity="0.64"/><circle cx="412" cy="30" r="0.6" fill="#fff" opacity="1.00"/><circle cx="146" cy="96" r="0.9" fill="#fff" opacity="0.74"/><circle cx="93" cy="150" r="1.1" fill="#fff" opacity="0.89"/><circle cx="7" cy="107" r="1.2" fill="#fff" opacity="0.98"/><circle cx="620" cy="152" r="1.5" fill="#fff" opacity="0.54"/><circle cx="38" cy="160" r="1.8" fill="#fff" opacity="0.83"/><circle cx="310" cy="219" r="1.7" fill="#fff" opacity="0.52"/><circle cx="706" cy="114" r="0.9" fill="#fff" opacity="0.54"/><circle cx="245" cy="112" r="0.6" fill="#fff" opacity="0.61"/><circle cx="104" cy="243" r="1.4" fill="#fff" opacity="0.35"/><circle cx="929" cy="61" r="1.2" fill="#fff" opacity="0.71"/><circle cx="399" cy="93" r="1.2" fill="#fff" opacity="0.44"/><circle cx="1036" cy="36" r="1.7" fill="#fff" opacity="0.49"/><circle cx="364" cy="124" r="0.6" fill="#fff" opacity="0.43"/><circle cx="433" cy="141" r="1.7" fill="#fff" opacity="0.99"/><circle cx="52" cy="171" r="0.8" fill="#fff" opacity="0.87"/><circle cx="387" cy="286" r="1.3" fill="#fff" opacity="0.43"/><circle cx="6" cy="79" r="1.7" fill="#fff" opacity="0.45"/><circle cx="575" cy="119" r="1.0" fill="#fff" opacity="0.87"/><circle cx="257" cy="230" r="1.5" fill="#fff" opacity="0.96"/><circle cx="624" cy="295" r="1.2" fill="#fff" opacity="0.72"/><circle cx="745" cy="269" r="1.8" fill="#fff" opacity="0.42"/><circle cx="165" cy="171" r="1.7" fill="#fff" opacity="0.70"/><circle cx="359" cy="308" r="1.0" fill="#fff" opacity="0.41"/><circle cx="63" cy="10" r="1.5" fill="#fff" opacity="0.42"/><circle cx="859" cy="277" r="1.9" fill="#fff" opacity="0.88"/><circle cx="509" cy="199" r="1.7" fill="#fff" opacity="0.82"/><circle cx="349" cy="244" r="0.7" fill="#fff" opacity="0.55"/><circle cx="1195" cy="151" r="0.9" fill="#fff" opacity="0.86"/><circle cx="540" cy="1" r="0.6" fill="#fff" opacity="0.52"/><circle cx="398" cy="300" r="0.9" fill="#fff" opacity="0.90"/><circle cx="1024" cy="133" r="1.9" fill="#fff" opacity="0.85"/><circle cx="581" cy="84" r="1.2" fill="#fff" opacity="0.94"/><circle cx="644" cy="62" r="1.1" fill="#fff" opacity="0.66"/><circle cx="229" cy="183" r="0.6" fill="#fff" opacity="0.88"/><circle cx="214" cy="33" r="1.4" fill="#fff" opacity="0.55"/><circle cx="1062" cy="159" r="1.3" fill="#fff" opacity="0.89"/><circle cx="257" cy="239" r="1.4" fill="#fff" opacity="0.63"/><circle cx="1151" cy="7" r="1.7" fill="#fff" opacity="0.44"/><circle cx="1008" cy="49" r="0.7" fill="#fff" opacity="0.68"/><circle cx="1111" cy="82" r="1.2" fill="#fff" opacity="0.75"/><circle cx="292" cy="170" r="0.6" fill="#fff" opacity="0.64"/><circle cx="912" cy="109" r="0.9" fill="#fff" opacity="0.38"/><circle cx="841" cy="137" r="1.8" fill="#fff" opacity="0.83"/><circle cx="120" cy="293" r="1.8" fill="#fff" opacity="0.88"/><circle cx="998" cy="218" r="1.5" fill="#fff" opacity="0.78"/><circle cx="709" cy="82" r="0.8" fill="#fff" opacity="0.82"/><circle cx="716" cy="18" r="1.4" fill="#fff" opacity="0.75"/><circle cx="614" cy="248" r="1.7" fill="#fff" opacity="0.60"/><circle cx="978" cy="160" r="1.3" fill="#fff" opacity="0.62"/><circle cx="1120" cy="142" r="1.8" fill="#fff" opacity="0.57"/><circle cx="807" cy="292" r="1.5" fill="#fff" opacity="0.59"/><circle cx="93" cy="153" r="1.1" fill="#fff" opacity="0.88"/><circle cx="941" cy="316" r="1.2" fill="#fff" opacity="0.62"/><circle cx="677" cy="240" r="0.7" fill="#fff" opacity="0.49"/><circle cx="175" cy="104" r="1.0" fill="#fff" opacity="0.98"/><circle cx="249" cy="299" r="1.0" fill="#fff" opacity="0.48"/><circle cx="1169" cy="29" r="0.7" fill="#fff" opacity="0.43"/><circle cx="80" cy="124" r="0.9" fill="#fff" opacity="0.45"/><circle cx="19" cy="223" r="0.7" fill="#fff" opacity="0.50"/><circle cx="679" cy="283" r="1.5" fill="#fff" opacity="0.81"/><circle cx="841" cy="255" r="1.7" fill="#fff" opacity="0.45"/><circle cx="65" cy="199" r="1.3" fill="#fff" opacity="0.69"/><circle cx="938" cy="56" r="1.5" fill="#fff" opacity="0.63"/><circle cx="506" cy="78" r="1.0" fill="#fff" opacity="0.73"/><circle cx="665" cy="290" r="1.0" fill="#fff" opacity="0.82"/><circle cx="116" cy="209" r="0.8" fill="#fff" opacity="0.91"/><circle cx="1158" cy="81" r="1.7" fill="#fff" opacity="0.49"/><circle cx="366" cy="33" r="1.2" fill="#fff" opacity="0.42"/><circle cx="845" cy="184" r="1.1" fill="#fff" opacity="0.81"/><circle cx="280" cy="106" r="1.1" fill="#fff" opacity="0.35"/><circle cx="1064" cy="28" r="0.7" fill="#fff" opacity="0.87"/><circle cx="982" cy="143" r="1.1" fill="#fff" opacity="0.44"/><circle cx="1" cy="167" r="0.9" fill="#fff" opacity="0.45"/><circle cx="1087" cy="6" r="1.1" fill="#fff" opacity="0.84"/><circle cx="896" cy="34" r="1.6" fill="#fff" opacity="0.72"/><circle cx="756" cy="302" r="1.6" fill="#fff" opacity="0.74"/><circle cx="924" cy="157" r="1.3" fill="#fff" opacity="0.88"/><circle cx="743" cy="120" r="0.6" fill="#fff" opacity="0.86"/><circle cx="408" cy="137" r="1.0" fill="#fff" opacity="0.71"/><circle cx="481" cy="267" r="1.4" fill="#fff" opacity="0.71"/><circle cx="940" cy="141" r="1.3" fill="#fff" opacity="0.84"/><circle cx="867" cy="238" r="1.8" fill="#fff" opacity="0.71"/><circle cx="666" cy="60" r="0.9" fill="#fff" opacity="0.63"/><circle cx="599" cy="288" r="0.7" fill="#fff" opacity="0.58"/><path d="M300 520L140 0" stroke="#cfe0ff" stroke-opacity=".07" stroke-width="60"/><path d="M900 520L1060 0" stroke="#cfe0ff" stroke-opacity=".07" stroke-width="60"/><path d="M600 520L600 0" stroke="#cfe0ff" stroke-opacity=".07" stroke-width="60"/><ellipse cx="600" cy="300" rx="420" ry="160" fill="url(#spot)"/><g transform="translate(600 372) scale(1.15)" fill="#1a2350"><rect x="-230" y="-60" width="460" height="60"/><rect x="-250" y="-70" width="500" height="12"/><rect x="-220" y="-58" width="8" height="56" fill="#2a3670"/><rect x="-198" y="-58" width="8" height="56" fill="#2a3670"/><rect x="-176" y="-58" width="8" height="56" fill="#2a3670"/><rect x="-154" y="-58" width="8" height="56" fill="#2a3670"/><rect x="-132" y="-58" width="8" height="56" fill="#2a3670"/><rect x="-110" y="-58" width="8" height="56" fill="#2a3670"/><rect x="-88" y="-58" width="8" height="56" fill="#2a3670"/><rect x="-66" y="-58" width="8" height="56" fill="#2a3670"/><rect x="-44" y="-58" width="8" height="56" fill="#2a3670"/><rect x="-22" y="-58" width="8" height="56" fill="#2a3670"/><rect x="0" y="-58" width="8" height="56" fill="#2a3670"/><rect x="22" y="-58" width="8" height="56" fill="#2a3670"/><rect x="44" y="-58" width="8" height="56" fill="#2a3670"/><rect x="66" y="-58" width="8" height="56" fill="#2a3670"/><rect x="88" y="-58" width="8" height="56" fill="#2a3670"/><rect x="110" y="-58" width="8" height="56" fill="#2a3670"/><rect x="132" y="-58" width="8" height="56" fill="#2a3670"/><rect x="154" y="-58" width="8" height="56" fill="#2a3670"/><rect x="176" y="-58" width="8" height="56" fill="#2a3670"/><rect x="198" y="-58" width="8" height="56" fill="#2a3670"/><rect x="220" y="-58" width="8" height="56" fill="#2a3670"/><rect x="-110" y="-120" width="220" height="52"/><path d="M-120-118h240v-10h-240z"/><path d="M-90-128a90 86 0 01180 0z"/><rect x="-14" y="-236" width="28" height="30"/><path d="M-20-206h40l-6-8h-28z"/><path d="M0-236l-6-18h12z"/></g><path d="M0 10 L20 13 L40 16 L60 19 L80 22 L100 25 L120 28 L140 30 L160 32 L180 34 L200 36 L220 37 L240 39 L260 39 L280 40 L300 40 L320 40 L340 39 L360 39 L380 37 L400 36 L420 34 L440 32 L460 30 L480 28 L500 25 L520 22 L540 19 L560 16 L580 13 L600 10 L620 13 L640 16 L660 19 L680 22 L700 25 L720 28 L740 30 L760 32 L780 34 L800 36 L820 37 L840 39 L860 39 L880 40 L900 40 L920 40 L940 39 L960 39 L980 37 L1000 36 L1020 34 L1040 32 L1060 30 L1080 28 L1100 25 L1120 22 L1140 19 L1160 16 L1180 13 L1200 10" fill="none" stroke="#dfe6ff" stroke-width="2"/><path d="M2 10L38 16L20 53Z" fill="#d7263d" stroke="#0004"/><path d="M62 20L98 25L80 62Z" fill="#f4f6ff" stroke="#0004"/><path d="M122 28L158 32L140 70Z" fill="#3b57c8" stroke="#0004"/><path d="M182 34L218 37L200 76Z" fill="#d7263d" stroke="#0004"/><path d="M242 39L278 40L260 79Z" fill="#f4f6ff" stroke="#0004"/><path d="M302 40L338 39L320 80Z" fill="#3b57c8" stroke="#0004"/><path d="M362 38L398 36L380 77Z" fill="#d7263d" stroke="#0004"/><path d="M422 34L458 30L440 72Z" fill="#f4f6ff" stroke="#0004"/><path d="M482 27L518 22L500 65Z" fill="#3b57c8" stroke="#0004"/><path d="M542 19L578 13L560 56Z" fill="#d7263d" stroke="#0004"/><path d="M602 10L638 16L620 53Z" fill="#f4f6ff" stroke="#0004"/><path d="M662 20L698 25L680 62Z" fill="#3b57c8" stroke="#0004"/><path d="M722 28L758 32L740 70Z" fill="#d7263d" stroke="#0004"/><path d="M782 34L818 37L800 76Z" fill="#f4f6ff" stroke="#0004"/><path d="M842 39L878 40L860 79Z" fill="#3b57c8" stroke="#0004"/><path d="M902 40L938 39L920 80Z" fill="#d7263d" stroke="#0004"/><path d="M962 38L998 36L980 77Z" fill="#f4f6ff" stroke="#0004"/><path d="M1022 34L1058 30L1040 72Z" fill="#3b57c8" stroke="#0004"/><path d="M1082 27L1118 22L1100 65Z" fill="#d7263d" stroke="#0004"/><path d="M1142 19L1178 13L1160 56Z" fill="#f4f6ff" stroke="#0004"/><path d="M0-10Q1-1 10 0Q1 1 0 10Q-1 1-10 0Q-1-1 0-10Z" transform="translate(200 110) scale(1.4)" fill="#ffd36b" opacity="0.9"/><path d="M0-10Q1-1 10 0Q1 1 0 10Q-1 1-10 0Q-1-1 0-10Z" transform="translate(1000 90) scale(1.6)" fill="#ffd36b" opacity="0.9"/><path d="M0-10Q1-1 10 0Q1 1 0 10Q-1 1-10 0Q-1-1 0-10Z" transform="translate(120 240) scale(0.9)" fill="#ffd36b" opacity="0.9"/><path d="M0-10Q1-1 10 0Q1 1 0 10Q-1 1-10 0Q-1-1 0-10Z" transform="translate(1080 230) scale(1)" fill="#ffd36b" opacity="0.9"/><rect y="372" width="1200" height="148" fill="url(#vel)"/><rect y="370" width="1200" height="6" fill="#e6b84a"/><rect y="384" width="1200" height="1.5" fill="#e6b84a" opacity=".5"/></svg>