<svg xmlns="http://www.w3.org/2000/svg" viewBox="0 0 1200 520" preserveAspectRatio="xMidYMid slice"><defs><linearGradient id="s" x1="0" y1="0" x2="0" y2="1"><stop offset="0" stop-color="#3a1c0a"/><stop offset="1" stop-color="#1a0d05"/></linearGradient><radialGradient id="gl" cx="0.5" cy="0.1" r="0.7"><stop offset="0" stop-color="rgba(255,190,90,.35)"/><stop offset="1" stop-color="rgba(255,190,90,0)"/></radialGradient></defs><rect width="1200" height="520" fill="url(#s)"/><rect x="0" width="3" height="520" fill="#000" opacity=".25"/><rect x="100" width="3" height="520" fill="#000" opacity=".25"/><rect x="200" width="3" height="520" fill="#000" opacity=".25"/><rect x="300" width="3" height="520" fill="#000" opacity=".25"/><rect x="400" width="3" height="520" fill="#000" opacity=".25"/><rect x="500" width="3" height="520" fill="#000" opacity=".25"/><rect x="600" width="3" height="520" fill="#000" opacity=".25"/><rect x="700" width="3" height="520" fill="#000" opacity=".25"/><rect x="800" width="3" height="520" fill="#000" opacity=".25"/><rect x="900" width="3" height="520" fill="#000" opacity=".25"/><rect x="1000" width="3" height="520" fill="#000" opacity=".25"/><rect x="1100" width="3" height="520" fill="#000" opacity=".25"/><rect width="1200" height="520" fill="url(#gl)"/><rect x="61" y="220" width="18" height="300" fill="#2a1408"/><circle cx="53" cy="129" r="31" fill="#a4531f" opacity=".55"/><circle cx="81" cy="207" r="44" fill="#a4531f" opacity=".55"/><circle cx="119" cy="220" r="26" fill="#c4452a" opacity=".55"/><circle cx="93" cy="233" r="40" fill="#c4452a" opacity=".55"/><circle cx="138" cy="257" r="36" fill="#f0b23c" opacity=".55"/><circle cx="92" cy="196" r="28" fill="#e8762c" opacity=".55"/><circle cx="61" cy="138" r="50" fill="#e8762c" opacity=".55"/><circle cx="102" cy="214" r="30" fill="#e8762c" opacity=".55"/><circle cx="17" cy="245" r="48" fill="#c4452a" opacity=".55"/><circle cx="7" cy="144" r="46" fill="#c4452a" opacity=".55"/><circle cx="61" cy="225" r="28" fill="#a4531f" opacity=".55"/><circle cx="20" cy="204" r="39" fill="#a4531f" opacity=".55"/><rect x="1121" y="220" width="18" height="300" fill="#2a1408"/><circle cx="1180" cy="129" r="29" fill="#e8762c" opacity=".55"/><circle cx="1124" cy="214" r="40" fill="#f0b23c" opacity=".55"/><circle cx="1136" cy="240" r="47" fill="#f0b23c" opacity=".55"/><circle cx="1085" cy="227" r="49" fill="#e8762c" opacity=".55"/><circle cx="1198" cy="210" r="55" fill="#a4531f" opacity=".55"/><circle cx="1152" cy="217" r="45" fill="#a4531f" opacity=".55"/><circle cx="1144" cy="107" r="56" fill="#c4452a" opacity=".55"/><circle cx="1121" cy="215" r="48" fill="#a4531f" opacity=".55"/><circle cx="1170" cy="104" r="47" fill="#c4452a" opacity=".55"/><circle cx="1190" cy="132" r="38" fill="#f0b23c" opacity=".55"/><circle cx="1173" cy="196" r="51" fill="#f0b23c" opacity=".55"/><circle cx="1165" cy="214" r="33" fill="#c4452a" opacity=".55"/><path d="M0 20 L20 25 L40 31 L60 35 L80 40 L100 44 L120 48 L140 50 L160 52 L180 54 L200 54 L220 54 L240 52 L260 50 L280 48 L300 44 L320 40 L340 35 L360 31 L380 25 L400 20 L420 25 L440 31 L460 35 L480 40 L500 44 L520 48 L540 50 L560 52 L580 54 L600 54 L620 54 L640 52 L660 50 L680 48 L700 44 L720 40 L740 35 L760 31 L780 25 L800 20 L820 25 L840 31 L860 35 L880 40 L900 44 L920 48 L940 50 L960 52 L980 54 L1000 54 L1020 54 L1040 52 L1060 50 L1080 48 L1100 44 L1120 40 L1140 35 L1160 31 L1180 25 L1200 20" fill="none" stroke="#5a3a18" stroke-width="3"/><ellipse cx="10" cy="33" rx="7" ry="13" fill="#c4452a" transform="rotate(-38 10 23)"/><ellipse cx="36" cy="39" rx="7" ry="13" fill="#c4452a" transform="rotate(-2 36 29)"/><ellipse cx="62" cy="46" rx="7" ry="13" fill="#c4452a" transform="rotate(-35 62 36)"/><ellipse cx="88" cy="52" rx="7" ry="13" fill="#c4452a" transform="rotate(4 88 42)"/><ellipse cx="114" cy="57" rx="7" ry="13" fill="#7a8a2a" transform="rotate(-28 114 47)"/><ellipse cx="140" cy="60" rx="7" ry="13" fill="#f0b23c" transform="rotate(-30 140 50)"/><ellipse cx="166" cy="63" rx="7" ry="13" fill="#a4531f" transform="rotate(14 166 53)"/><ellipse cx="192" cy="64" rx="7" ry="13" fill="#e8762c" transform="rotate(26 192 54)"/><ellipse cx="218" cy="64" rx="7" ry="13" fill="#a4531f" transform="rotate(8 218 54)"/><ellipse cx="244" cy="62" rx="7" ry="13" fill="#c4452a" transform="rotate(4 244 52)"/><ellipse cx="270" cy="59" rx="7" ry="13" fill="#a4531f" transform="rotate(-9 270 49)"/><ellipse cx="296" cy="55" rx="7" ry="13" fill="#f0b23c" transform="rotate(31 296 45)"/><ellipse cx="322" cy="50" rx="7" ry="13" fill="#f0b23c" transform="rotate(-38 322 40)"/><ellipse cx="348" cy="44" rx="7" ry="13" fill="#7a8a2a" transform="rotate(17 348 34)"/><ellipse cx="374" cy="37" rx="7" ry="13" fill="#c4452a" transform="rotate(11 374 27)"/><ellipse cx="400" cy="30" rx="7" ry="13" fill="#7a8a2a" transform="rotate(1 400 20)"/><ellipse cx="426" cy="37" rx="7" ry="13" fill="#c4452a" transform="rotate(-7 426 27)"/><ellipse cx="452" cy="44" rx="7" ry="13" fill="#e8762c" transform="rotate(-37 452 34)"/><ellipse cx="478" cy="50" rx="7" ry="13" fill="#7a8a2a" transform="rotate(15 478 40)"/><ellipse cx="504" cy="55" rx="7" ry="13" fill="#c4452a" transform="rotate(15 504 45)"/><ellipse cx="530" cy="59" rx="7" ry="13" fill="#f0b23c" transform="rotate(-17 530 49)"/><ellipse cx="556" cy="62" rx="7" ry="13" fill="#f0b23c" transform="rotate(28 556 52)"/><ellipse cx="582" cy="64" rx="7" ry="13" fill="#7a8a2a" transform="rotate(-22 582 54)"/><ellipse cx="608" cy="64" rx="7" ry="13" fill="#e8762c" transform="rotate(30 608 54)"/><ellipse cx="634" cy="63" rx="7" ry="13" fill="#f0b23c" transform="rotate(10 634 53)"/><ellipse cx="660" cy="60" rx="7" ry="13" fill="#a4531f" transform="rotate(-16 660 50)"/><ellipse cx="686" cy="57" rx="7" ry="13" fill="#a4531f" transform="rotate(15 686 47)"/><ellipse cx="712" cy="52" rx="7" ry="13" fill="#c4452a" transform="rotate(-32 712 42)"/><ellipse cx="738" cy="46" rx="7" ry="13" fill="#a4531f" transform="rotate(8 738 36)"/><ellipse cx="764" cy="39" rx="7" ry="13" fill="#c4452a" transform="rotate(-1 764 29)"/><ellipse cx="790" cy="33" rx="7" ry="13" fill="#a4531f" transform="rotate(-17 790 23)"/><ellipse cx="816" cy="34" rx="7" ry="13" fill="#c4452a" transform="rotate(-0 816 24)"/><ellipse cx="842" cy="41" rx="7" ry="13" fill="#7a8a2a" transform="rotate(26 842 31)"/><ellipse cx="868" cy="47" rx="7" ry="13" fill="#e8762c" transform="rotate(9 868 37)"/><ellipse cx="894" cy="53" rx="7" ry="13" fill="#7a8a2a" transform="rotate(-38 894 43)"/><ellipse cx="920" cy="58" rx="7" ry="13" fill="#c4452a" transform="rotate(-7 920 48)"/><ellipse cx="946" cy="61" rx="7" ry="13" fill="#a4531f" transform="rotate(-14 946 51)"/><ellipse cx="972" cy="63" rx="7" ry="13" fill="#f0b23c" transform="rotate(6 972 53)"/><ellipse cx="998" cy="64" rx="7" ry="13" fill="#a4531f" transform="rotate(29 998 54)"/><ellipse cx="1024" cy="63" rx="7" ry="13" fill="#c4452a" transform="rotate(-27 1024 53)"/><ellipse cx="1050" cy="61" rx="7" ry="13" fill="#7a8a2a" transform="rotate(1 1050 51)"/><ellipse cx="1076" cy="58" rx="7" ry="13" fill="#c4452a" transform="rotate(-38 1076 48)"/><ellipse cx="1102" cy="54" rx="7" ry="13" fill="#7a8a2a" transform="rotate(2 1102 44)"/><ellipse cx="1128" cy="48" rx="7" ry="13" fill="#e8762c" transform="rotate(-21 1128 38)"/><ellipse cx="1154" cy="42" rx="7" ry="13" fill="#f0b23c" transform="rotate(10 1154 32)"/><ellipse cx="1180" cy="35" rx="7" ry="13" fill="#7a8a2a" transform="rotate(21 1180 25)"/></svg>