<svg xmlns="http://www.w3.org/2000/svg" viewBox="0 0 400 220" preserveAspectRatio="xMidYMid slice"><defs><linearGradient id="bg" x1="0" y1="0" x2="0" y2="1"><stop offset="0" stop-color="#1c0d2e"/><stop offset="1" stop-color="#0e0618"/></linearGradient><radialGradient id="pg" cx="0.5" cy="0.5" r="0.5"><stop offset="0" stop-color="rgba(255,138,31,.75)"/><stop offset="1" stop-color="rgba(255,138,31,0)"/></radialGradient></defs><rect width="400" height="220" rx="18" fill="url(#bg)"/><path d="M-10 160C60 140 90 190 160 170S260 120 330 140 410 120 410 120V230H-10Z" fill="#160a28"/><path d="M0 205C70 190 120 214 190 196S300 180 400 196" stroke="#2a5a8a" stroke-width="10" fill="none" opacity=".55"/><path d="M0 0V220" stroke="#ffffff" stroke-opacity=".04"/><path d="M40 0V220" stroke="#ffffff" stroke-opacity=".04"/><path d="M80 0V220" stroke="#ffffff" stroke-opacity=".04"/><path d="M120 0V220" stroke="#ffffff" stroke-opacity=".04"/><path d="M160 0V220" stroke="#ffffff" stroke-opacity=".04"/><path d="M200 0V220" stroke="#ffffff" stroke-opacity=".04"/><path d="M240 0V220" stroke="#ffffff" stroke-opacity=".04"/><path d="M280 0V220" stroke="#ffffff" stroke-opacity=".04"/><path d="M320 0V220" stroke="#ffffff" stroke-opacity=".04"/><path d="M360 0V220" stroke="#ffffff" stroke-opacity=".04"/><path d="M0 0H400" stroke="#ffffff" stroke-opacity=".04"/><path d="M0 40H400" stroke="#ffffff" stroke-opacity=".04"/><path d="M0 80H400" stroke="#ffffff" stroke-opacity=".04"/><path d="M0 120H400" stroke="#ffffff" stroke-opacity=".04"/><path d="M0 160H400" stroke="#ffffff" stroke-opacity=".04"/><path d="M0 200H400" stroke="#ffffff" stroke-opacity=".04"/><g stroke="#3a2456" stroke-width="7" fill="none" stroke-linecap="round"><path d="M20 60L130 90 220 70 380 110"/><path d="M110 10L130 90 120 200"/><path d="M260 10L220 70 250 190"/><path d="M30 150L120 140 250 150 370 175"/></g><g stroke="#ff8a1f" stroke-width="2.5" stroke-dasharray="6 7" fill="none" opacity=".8"><path d="M60 70Q120 120 180 85T300 120 350 160"/></g><circle cx="60" cy="70" r="22" fill="url(#pg)"/><path d="M60 82c-10-11-14-17-14-23a14 14 0 0128 0c0 6-4 12-14 23z" fill="#ff8a1f" stroke="#7a3300" stroke-width="1.5"/><circle cx="60" cy="59" r="5" fill="#2a0f3e"/><circle cx="180" cy="85" r="22" fill="url(#pg)"/><path d="M180 97c-10-11-14-17-14-23a14 14 0 0128 0c0 6-4 12-14 23z" fill="#ff8a1f" stroke="#7a3300" stroke-width="1.5"/><circle cx="180" cy="74" r="5" fill="#2a0f3e"/><circle cx="300" cy="120" r="22" fill="url(#pg)"/><path d="M300 132c-10-11-14-17-14-23a14 14 0 0128 0c0 6-4 12-14 23z" fill="#ff8a1f" stroke="#7a3300" stroke-width="1.5"/><circle cx="300" cy="109" r="5" fill="#2a0f3e"/><circle cx="350" cy="160" r="22" fill="url(#pg)"/><path d="M350 172c-10-11-14-17-14-23a14 14 0 0128 0c0 6-4 12-14 23z" fill="#ff8a1f" stroke="#7a3300" stroke-width="1.5"/><circle cx="350" cy="149" r="5" fill="#2a0f3e"/><circle cx="120" cy="165" r="22" fill="url(#pg)"/><path d="M120 177c-10-11-14-17-14-23a14 14 0 0128 0c0 6-4 12-14 23z" fill="#ff8a1f" stroke="#7a3300" stroke-width="1.5"/><circle cx="120" cy="154" r="5" fill="#2a0f3e"/><circle cx="245" cy="40" r="22" fill="url(#pg)"/><path d="M245 52c-10-11-14-17-14-23a14 14 0 0128 0c0 6-4 12-14 23z" fill="#ff8a1f" stroke="#7a3300" stroke-width="1.5"/><circle cx="245" cy="29" r="5" fill="#2a0f3e"/></svg>