<svg xmlns="http://www.w3.org/2000/svg" viewBox="0 0 160 160" preserveAspectRatio="xMidYMid meet"><defs><radialGradient id="halo" cx="0.5" cy="0.5" r="0.5"><stop offset="0" stop-color="rgba(255,255,255,.28)"/><stop offset="1" stop-color="rgba(255,255,255,0)"/></radialGradient><linearGradient id="pk" x1="0" y1="0" x2="0" y2="1"><stop offset="0" stop-color="#ffb04a"/><stop offset="1" stop-color="#d4560a"/></linearGradient><linearGradient id="gold" x1="0" y1="0" x2="0" y2="1"><stop offset="0" stop-color="#fff1b0"/><stop offset="0.5" stop-color="#f5c542"/><stop offset="1" stop-color="#a8740c"/></linearGradient><filter id="glow" x="-50%" y="-50%" width="200%" height="200%"><feGaussianBlur stdDeviation="6" result="b"/><feMerge><feMergeNode in="b"/><feMergeNode in="SourceGraphic"/></feMerge></filter></defs><circle cx="80" cy="80" r="78" fill="url(#halo)"/><path d="M80 80L142 80" stroke="#ff6b6b" stroke-width="4" stroke-linecap="round" filter="url(#glow)"/><path d="M80 80L134 111" stroke="#ffd36b" stroke-width="4" stroke-linecap="round" filter="url(#glow)"/><path d="M80 80L111 134" stroke="#5b8cff" stroke-width="4" stroke-linecap="round" filter="url(#glow)"/><path d="M80 80L80 142" stroke="#ffffff" stroke-width="4" stroke-linecap="round" filter="url(#glow)"/><path d="M80 80L49 134" stroke="#ff6b6b" stroke-width="4" stroke-linecap="round" filter="url(#glow)"/><path d="M80 80L26 111" stroke="#ffd36b" stroke-width="4" stroke-linecap="round" filter="url(#glow)"/><path d="M80 80L18 80" stroke="#5b8cff" stroke-width="4" stroke-linecap="round" filter="url(#glow)"/><path d="M80 80L26 49" stroke="#ffffff" stroke-width="4" stroke-linecap="round" filter="url(#glow)"/><path d="M80 80L49 26" stroke="#ff6b6b" stroke-width="4" stroke-linecap="round" filter="url(#glow)"/><path d="M80 80L80 18" stroke="#ffd36b" stroke-width="4" stroke-linecap="round" filter="url(#glow)"/><path d="M80 80L111 26" stroke="#5b8cff" stroke-width="4" stroke-linecap="round" filter="url(#glow)"/><path d="M80 80L134 49" stroke="#ffffff" stroke-width="4" stroke-linecap="round" filter="url(#glow)"/><path d="M80 50l9 20 22 2-17 14 5 22-19-12-19 12 5-22-17-14 22-2z" fill="url(#gold)" stroke="#8a5a00" stroke-width="2.5"/></svg>