<svg xmlns="http://www.w3.org/2000/svg" width="160" height="130" viewBox="0 0 160 130" xmlns:c2pa="http://c2pa.org/manifest"><metadata><c2pa:manifest>AAAWgmp1bWIAAAAeanVtZGMycGEAEQAQgAAAqgA4m3EDYzJwYQAAABZcanVtYgAAAEdqdW1kYzJtYQARABCAAACqADibcQN1cm46YzJwYTpjZjA3YjgzYS0zNWIzLTRlMDgtYTRhMy1lMjcyNzRkNDgxZDAAAAADl2p1bWIAAAApanVtZGMyYXMAEQAQgAAAqgA4m3EDYzJwYS5hc3NlcnRpb25zAAAAALxqdW1iAAAARGp1bWRjYm9yABEAEIAAAKoAOJtxE2MycGEuaW5ncmVkaWVudC52MwAAAAAYYzJzaInipFWkeSn9MxzMGhIY8EoAAABwY2JvcqNpZGM6Zm9ybWF0bWltYWdlL3N2Zyt4bWxqaW5zdGFuY2VJRHgseG1wOmlpZDpmYTY3MGM1Ni1mYzM2LTRhYzgtYWNmYi0zMzYyMjhlMDkzMDhscmVsYXRpb25zaGlwaHBhcmVudE9mAAAB4mp1bWIAAABBanVtZGNib3IAEQAQgAAAqgA4m3ETYzJwYS5hY3Rpb25zLnYyAAAAABhjMnNoc8EzMAmPYcB2IiMjOYOFWAAAAZljYm9yomdhY3Rpb25zgqJmYWN0aW9ua2MycGEub3BlbmVkanBhcmFtZXRlcnOha2luZ3JlZGllbnRzgaJjdXJseC1zZWxmI2p1bWJmPWMycGEuYXNzZXJ0aW9ucy9jMnBhLmluZ3JlZGllbnQudjNkaGFzaFggX2ZkH0PqZtHxpMkI9Yn4XrMR441/C/eiTBMynqhRtqWkZmFjdGlvbngdY29tLmFudGhyb3BpYy5jbGF1ZGUucHJvdmlkZWRqcGFyYW1ldGVyc6F4H2NvbS5hbnRocm9waWMub3JpZ2luLWNvbmZpZGVuY2VndW5rbm93bmtkZXNjcmlwdGlvbnhmQ2xhdWRlIHByb3ZpZGVkIHRoaXMgZmlsZSBhdCB0aGUgcmVxdWVzdCBvZiBhIHVzZXIgYW5kIG1heSBoYXZlIGNyZWF0ZWQgb3IgbW9kaWZpZWQgdGhlIGZpbGUgY29udGVudHMubXNvZnR3YXJlQWdlbnShZG5hbWVmQ2xhdWRlcmFsbEFjdGlvbnNJbmNsdWRlZPUAAADIanVtYgAAAEBqdW1kY2JvcgARABCAAACqADibcRNjMnBhLmhhc2guZGF0YQAAAAAYYzJzaKcKTAKVRjaVayBSWm3CilkAAACAY2JvcqVjYWxnZnNoYTI1NmNwYWRNAAAAAAAAAAAAAAAAAGRoYXNoWCB+lNixec+yccG9ScB21AlMvNG9Vr8/ly6sn1PoAsVxh2RuYW1lbmp1bWJmIG1hbmlmZXN0amV4Y2x1c2lvbnOBomVzdGFydBiWZmxlbmd0aBkeBAAAAj5qdW1iAAAAJ2p1bWRjMmNsABEAEIAAAKoAOJtxA2MycGEuY2xhaW0udjIAAAACD2Nib3KlY2FsZ2ZzaGEyNTZpc2lnbmF0dXJleE1zZWxmI2p1bWJmPS9jMnBhL3VybjpjMnBhOmNmMDdiODNhLTM1YjMtNGUwOC1hNGEzLWUyNzI3NGQ0ODFkMC9jMnBhLnNpZ25hdHVyZWppbnN0YW5jZUlEeCx4bXA6aWlkOmZhYTMyN2Q0LWRjNDItNDNiYi1hYzU3LTA2NWQzYWZjNDNiOXJjcmVhdGVkX2Fzc2VydGlvbnODomN1cmx4LXNlbGYjanVtYmY9YzJwYS5hc3NlcnRpb25zL2MycGEuaW5ncmVkaWVudC52M2RoYXNoWCBfZmQfQ+pm0fGkyQj1ifhesxHjjX8L96JMEzKeqFG2paJjdXJseCpzZWxmI2p1bWJmPWMycGEuYXNzZXJ0aW9ucy9jMnBhLmFjdGlvbnMudjJkaGFzaFggtrqdhWqSpO63p+7+M/lzIAhx9WtCinbrjNc1baRQxkeiY3VybHgpc2VsZiNqdW1iZj1jMnBhLmFzc2VydGlvbnMvYzJwYS5oYXNoLmRhdGFkaGFzaFggwuSr+ia/K5PVKFERGz2mTxKVOD23hYLe2GEtECuPuhJ0Y2xhaW1fZ2VuZXJhdG9yX2luZm+jZG5hbWVvQW50aHJvcGljIEZpbGVzZ3ZlcnNpb25lMS4wLjBrc3BlY1ZlcnNpb25lMi40LjAAABA4anVtYgAAAChqdW1kYzJjcwARABCAAACqADibcQNjMnBhLnNpZ25hdHVyZQAAABAIY2JvctKEWQISogEmGCFZAgowggIGMIIBjaADAgECAhRA5aAK7sI50L64g/oGQgU9Z1UTADAKBggqhkjOPQQDAzBJMRcwFQYDVQQKEw5BbnRocm9waWMsIFBCQzEuMCwGA1UEAxMlQW50aHJvcGljIENvbnRlbnQgQ3JlZGVudGlhbHMgUm9vdCBDQTAeFw0yNjA4MDcxODQzNTZaFw0yODA4MDYxOTQzNTZaMEQxFzAVBgNVBAoTDkFudGhyb3BpYywgUEJDMSkwJwYDVQQDEyBBbnRocm9waWMgQ2xhdWRlIENvbnRlbnQgU2lnbmluZzBZMBMGByqGSM49AgEGCCqGSM49AwEHA0IABJh6CmvLUBgFFNU0vUKlOVtE6djd17L5SuwX0LemFisBM3dkd/3cyjxFA3Qo5S46fX0/ihY0VZ7mfb9KF703t5OjWDBWMA4GA1UdDwEB/wQEAwIHgDAVBgNVHSUEDjAMBgorBgEEAYPoXgIBMAwGA1UdEwEB/wQCMAAwHwYDVR0jBBgwFoAUzlHiBIFOZFsj+OPEz5o+nMHXXMIwCgYIKoZIzj0EAwMDZwAwZAIwMXMdFJ4BetLLVY7ORuE9noqbbAZOZn/aArXyTwFAZfKrPzxF2vPoJNf1+UCdg1XGAjBwX1zd9WGqYkqmL5SFqw1QySjr1zJfpJM9+1rdDwSPLMOPOjKuiXjoU/pUUeG9RwmhY3BhZFkNngAAAAAAAAAAAAAAAAAAAAAAAAAAAAAAAAAAAAAAAAAAAAAAAAAAAAAAAAAAAAAAAAAAAAAAAAAAAAAAAAAAAAAAAAAAAAAAAAAAAAAAAAAAAAAAAAAAAAAAAAAAAAAAAAAAAAAAAAAAAAAAAAAAAAAAAAAAAAAAAAAAAAAAAAAAAAAAAAAAAAAAAAAAAAAAAAAAAAAAAAAAAAAAAAAAAAAAAAAAAAAAAAAAAAAAAAAAAAAAAAAAAAAAAAAAAAAAAAAAAAAAAAAAAAAAAAAAAAAAAAAAAAAAAAAAAAAAAAAAAAAAAAAAAAAAAAAAAAAAAAAAAAAAAAAAAAAAAAAAAAAAAAAAAAAAAAAAAAAAAAAAAAAAAAAAAAAAAAAAAAAAAAAAAAAAAAAAAAAAAAAAAAAAAAAAAAAAAAAAAAAAAAAAAAAAAAAAAAAAAAAAAAAAAAAAAAAAAAAAAAAAAAAAAAAAAAAAAAAAAAAAAAAAAAAAAAAAAAAAAAAAAAAAAAAAAAAAAAAAAAAAAAAAAAAAAAAAAAAAAAAAAAAAAAAAAAAAAAAAAAAAAAAAAAAAAAAAAAAAAAAAAAAAAAAAAAAAAAAAAAAAAAAAAAAAAAAAAAAAAAAAAAAAAAAAAAAAAAAAAAAAAAAAAAAAAAAAAAAAAAAAAAAAAAAAAAAAAAAAAAAAAAAAAAAAAAAAAAAAAAAAAAAAAAAAAAAAAAAAAAAAAAAAAAAAAAAAAAAAAAAAAAAAAAAAAAAAAAAAAAAAAAAAAAAAAAAAAAAAAAAAAAAAAAAAAAAAAAAAAAAAAAAAAAAAAAAAAAAAAAAAAAAAAAAAAAAAAAAAAAAAAAAAAAAAAAAAAAAAAAAAAAAAAAAAAAAAAAAAAAAAAAAAAAAAAAAAAAAAAAAAAAAAAAAAAAAAAAAAAAAAAAAAAAAAAAAAAAAAAAAAAAAAAAAAAAAAAAAAAAAAAAAAAAAAAAAAAAAAAAAAAAAAAAAAAAAAAAAAAAAAAAAAAAAAAAAAAAAAAAAAAAAAAAAAAAAAAAAAAAAAAAAAAAAAAAAAAAAAAAAAAAAAAAAAAAAAAAAAAAAAAAAAAAAAAAAAAAAAAAAAAAAAAAAAAAAAAAAAAAAAAAAAAAAAAAAAAAAAAAAAAAAAAAAAAAAAAAAAAAAAAAAAAAAAAAAAAAAAAAAAAAAAAAAAAAAAAAAAAAAAAAAAAAAAAAAAAAAAAAAAAAAAAAAAAAAAAAAAAAAAAAAAAAAAAAAAAAAAAAAAAAAAAAAAAAAAAAAAAAAAAAAAAAAAAAAAAAAAAAAAAAAAAAAAAAAAAAAAAAAAAAAAAAAAAAAAAAAAAAAAAAAAAAAAAAAAAAAAAAAAAAAAAAAAAAAAAAAAAAAAAAAAAAAAAAAAAAAAAAAAAAAAAAAAAAAAAAAAAAAAAAAAAAAAAAAAAAAAAAAAAAAAAAAAAAAAAAAAAAAAAAAAAAAAAAAAAAAAAAAAAAAAAAAAAAAAAAAAAAAAAAAAAAAAAAAAAAAAAAAAAAAAAAAAAAAAAAAAAAAAAAAAAAAAAAAAAAAAAAAAAAAAAAAAAAAAAAAAAAAAAAAAAAAAAAAAAAAAAAAAAAAAAAAAAAAAAAAAAAAAAAAAAAAAAAAAAAAAAAAAAAAAAAAAAAAAAAAAAAAAAAAAAAAAAAAAAAAAAAAAAAAAAAAAAAAAAAAAAAAAAAAAAAAAAAAAAAAAAAAAAAAAAAAAAAAAAAAAAAAAAAAAAAAAAAAAAAAAAAAAAAAAAAAAAAAAAAAAAAAAAAAAAAAAAAAAAAAAAAAAAAAAAAAAAAAAAAAAAAAAAAAAAAAAAAAAAAAAAAAAAAAAAAAAAAAAAAAAAAAAAAAAAAAAAAAAAAAAAAAAAAAAAAAAAAAAAAAAAAAAAAAAAAAAAAAAAAAAAAAAAAAAAAAAAAAAAAAAAAAAAAAAAAAAAAAAAAAAAAAAAAAAAAAAAAAAAAAAAAAAAAAAAAAAAAAAAAAAAAAAAAAAAAAAAAAAAAAAAAAAAAAAAAAAAAAAAAAAAAAAAAAAAAAAAAAAAAAAAAAAAAAAAAAAAAAAAAAAAAAAAAAAAAAAAAAAAAAAAAAAAAAAAAAAAAAAAAAAAAAAAAAAAAAAAAAAAAAAAAAAAAAAAAAAAAAAAAAAAAAAAAAAAAAAAAAAAAAAAAAAAAAAAAAAAAAAAAAAAAAAAAAAAAAAAAAAAAAAAAAAAAAAAAAAAAAAAAAAAAAAAAAAAAAAAAAAAAAAAAAAAAAAAAAAAAAAAAAAAAAAAAAAAAAAAAAAAAAAAAAAAAAAAAAAAAAAAAAAAAAAAAAAAAAAAAAAAAAAAAAAAAAAAAAAAAAAAAAAAAAAAAAAAAAAAAAAAAAAAAAAAAAAAAAAAAAAAAAAAAAAAAAAAAAAAAAAAAAAAAAAAAAAAAAAAAAAAAAAAAAAAAAAAAAAAAAAAAAAAAAAAAAAAAAAAAAAAAAAAAAAAAAAAAAAAAAAAAAAAAAAAAAAAAAAAAAAAAAAAAAAAAAAAAAAAAAAAAAAAAAAAAAAAAAAAAAAAAAAAAAAAAAAAAAAAAAAAAAAAAAAAAAAAAAAAAAAAAAAAAAAAAAAAAAAAAAAAAAAAAAAAAAAAAAAAAAAAAAAAAAAAAAAAAAAAAAAAAAAAAAAAAAAAAAAAAAAAAAAAAAAAAAAAAAAAAAAAAAAAAAAAAAAAAAAAAAAAAAAAAAAAAAAAAAAAAAAAAAAAAAAAAAAAAAAAAAAAAAAAAAAAAAAAAAAAAAAAAAAAAAAAAAAAAAAAAAAAAAAAAAAAAAAAAAAAAAAAAAAAAAAAAAAAAAAAAAAAAAAAAAAAAAAAAAAAAAAAAAAAAAAAAAAAAAAAAAAAAAAAAAAAAAAAAAAAAAAAAAAAAAAAAAAAAAAAAAAAAAAAAAAAAAAAAAAAAAAAAAAAAAAAAAAAAAAAAAAAAAAAAAAAAAAAAAAAAAAAAAAAAAAAAAAAAAAAAAAAAAAAAAAAAAAAAAAAAAAAAAAAAAAAAAAAAAAAAAAAAAAAAAAAAAAAAAAAAAAAAAAAAAAAAAAAAAAAAAAAAAAAAAAAAAAAAAAAAAAAAAAAAAAAAAAAAAAAAAAAAAAAAAAAAAAAAAAAAAAAAAAAAAAAAAAAAAAAAAAAAAAAAAAAAAAAAAAAAAAAAAAAAAAAAAAAAAAAAAAAAAAAAAAAAAAAAAAAAAAAAAAAAAAAAAAAAAAAAAAAAAAAAAAAAAAAAAAAAAAAAAAAAAAAAAAAAAAAAAAAAAAAAAAAAAAAAAAAAAAAAAAAAAAAAAAAAAAAAAAAAAAAAAAAAAAAAAAAAAAAAAAAAAAAAAAAAAAAAAAAAAAAAAAAAAAAAAAAAAAAAAAAAAAAAAAAAAAAAAAAAAAAAAAAAAAAAAAAAAAAAAAAAAAAAAAAAAAAAAAAAAAAAAAAAAAAAAAAAAAAAAAAAAAAAAAAAAAAAAAAAAAAAAAAAAAAAAAAAAAAAAAAAAAAAAAAAAAAAAAAAAAAAAAAAAAAAAAAAAAAAAAAAAAAAAAAAAAAAAAAAAAAAAAAAAAAAAAAAAAAAAAAAAAAAAAAAAAAAAAAAAAAAAAAAAAAAAAAAAAAAAAAAAAAAAAAAAAAAAAAAAAAAAAAAAAAAAAAAAAAAAAAAAAAAAAAAAAAAAAAAAAAAAAAAAAAAAAAAAAAAAAAAAAAAAAAAAAAAAAAAAAAAAAAAAAAAAAAAAAAAAAAAAAAAAAAAAAAAAAAAAAAAAAAAAAAAAAAAAAAAAAAAAAAAAAAAAAAAAAAAAAAAAAAAAAAAAAAAAAAAAAAAAAAAAAAAAAAAAAAAAAAAAAAAAAAAAAAAAAAAAAAAAAAAAAAAAAAAAAAAAAAAAAAAAAAAAAAAAAAAAAAAAAAAAAAAAAAAAAAAAAAAAAAAAAAAAAAAAAAAAAAAAAAAAAAAAAAAAAAAAAAAAAAAAAAAAAAAAAAAAAAAAAAAAAAAAAAAAAAAAAAAAAAAAAAAAAAAAAAAAAAAAAAAAAAAAAAAAAAAAAAAAAAAAAAAAAAAAAAAAAAAAAAAAAAAAAAAAAAAAAAAAAAAAAAAAAAAAAAAAAAAAAAAAAAAAAAAAAAAAAAAAAAAAAAAAAAAAAAAAAAAAAAAAAAAAAAAAAAAAAAAAAAAAAAAAAAAAAAAAAAAAAAAAAAAAAAAAAAAAAAAAAAAAAAAAAAAAAAAAAAAAAAAAAAAAAAAAAAAAAAAAAAAAAAAAAAAAAAAAAAAAAAAAAAAAAAAAAAAAAAAAAAAAAAAAAAAAAAAAAAAAAAAAAAAAAAAAAAAAAAAAAAAAAAAAAAAAAAAAAAAAAAAAAAAAAAAAAAAAAAAAAAAAAAAAAAAAAAAAAAAAAAAAAAAAAAAAAAAAAAAAAAAAAAAAAAAAAAAAAAAAAAAAAAAAAAAAAAAAAAAAAAAAAAAAAAAAAAAAAAAAAAAAAAAAAAAAAAAAAAAAAAAAAAAAAAAAAAAAAAAAAAAAAAAAAAAAAAAAAAAAAAAAAAAAAAAAAAAAAAAAAAAAAAAAAAAAAAAAAAAAAAAAAAAAAAAAAAAAAAAAAAAAAAAAAAAAAAAAAAAAAAAAAAAAAAAAAAAAAAAAAAAAAAAAAAAAAAAAAAAAAAAAAAPZYQHV92dtAUkUygqJRBTQVD9OvN86aTHC8pm6h4mK0OaMgJ0CPqZVZK4db5A08Q94Ljs1kOp0UxAk9wvAjQH5glCc=</c2pa:manifest></metadata><defs><radialGradient id="pet" cx=".5" cy=".8" r=".9"><stop offset="0" stop-color="#9c1f2b"/><stop offset="1" stop-color="#e5424d"/></radialGradient><radialGradient id="red" cx=".4" cy=".3" r=".9"><stop offset="0" stop-color="#ff7d86"/><stop offset=".6" stop-color="#c8323c"/><stop offset="1" stop-color="#7a1a26"/></radialGradient></defs><ellipse cx="80" cy="66" rx="14" ry="42" fill="#2f8145" stroke="#1c4d2a" stroke-width="1.5" transform="rotate(-70 80 66)"/><ellipse cx="80" cy="66" rx="14" ry="42" fill="#2f8145" stroke="#1c4d2a" stroke-width="1.5" transform="rotate(-20 80 66)"/><ellipse cx="80" cy="66" rx="14" ry="42" fill="#2f8145" stroke="#1c4d2a" stroke-width="1.5" transform="rotate(40 80 66)"/><ellipse cx="80" cy="66" rx="14" ry="42" fill="#2f8145" stroke="#1c4d2a" stroke-width="1.5" transform="rotate(90 80 66)"/><ellipse cx="58" cy="59.099999999999994" rx="10.260000000000002" ry="20.900000000000002" fill="url(#pet)" stroke="#7a1a26" stroke-width="1.2" transform="rotate(10 58 80)"/><path d="M58 80V45.8" stroke="#a4242f" stroke-width="1" opacity=".6" transform="rotate(10 58 80)"/><ellipse cx="58" cy="59.099999999999994" rx="10.260000000000002" ry="20.900000000000002" fill="url(#pet)" stroke="#7a1a26" stroke-width="1.2" transform="rotate(55 58 80)"/><path d="M58 80V45.8" stroke="#a4242f" stroke-width="1" opacity=".6" transform="rotate(55 58 80)"/><ellipse cx="58" cy="59.099999999999994" rx="10.260000000000002" ry="20.900000000000002" fill="url(#pet)" stroke="#7a1a26" stroke-width="1.2" transform="rotate(100 58 80)"/><path d="M58 80V45.8" stroke="#a4242f" stroke-width="1" opacity=".6" transform="rotate(100 58 80)"/><ellipse cx="58" cy="59.099999999999994" rx="10.260000000000002" ry="20.900000000000002" fill="url(#pet)" stroke="#7a1a26" stroke-width="1.2" transform="rotate(145 58 80)"/><path d="M58 80V45.8" stroke="#a4242f" stroke-width="1" opacity=".6" transform="rotate(145 58 80)"/><ellipse cx="58" cy="59.099999999999994" rx="10.260000000000002" ry="20.900000000000002" fill="url(#pet)" stroke="#7a1a26" stroke-width="1.2" transform="rotate(190 58 80)"/><path d="M58 80V45.8" stroke="#a4242f" stroke-width="1" opacity=".6" transform="rotate(190 58 80)"/><ellipse cx="58" cy="59.099999999999994" rx="10.260000000000002" ry="20.900000000000002" fill="url(#pet)" stroke="#7a1a26" stroke-width="1.2" transform="rotate(235 58 80)"/><path d="M58 80V45.8" stroke="#a4242f" stroke-width="1" opacity=".6" transform="rotate(235 58 80)"/><ellipse cx="58" cy="59.099999999999994" rx="10.260000000000002" ry="20.900000000000002" fill="url(#pet)" stroke="#7a1a26" stroke-width="1.2" transform="rotate(280 58 80)"/><path d="M58 80V45.8" stroke="#a4242f" stroke-width="1" opacity=".6" transform="rotate(280 58 80)"/><ellipse cx="58" cy="59.099999999999994" rx="10.260000000000002" ry="20.900000000000002" fill="url(#pet)" stroke="#7a1a26" stroke-width="1.2" transform="rotate(325 58 80)"/><path d="M58 80V45.8" stroke="#a4242f" stroke-width="1" opacity=".6" transform="rotate(325 58 80)"/><ellipse cx="58" cy="65.788" rx="6.976800000000002" ry="14.212000000000003" fill="#e0525c" stroke="#7a1a26" stroke-width="1.2" transform="rotate(32.5 58 80)"/><path d="M58 80V56.744" stroke="#a4242f" stroke-width="1" opacity=".6" transform="rotate(32.5 58 80)"/><ellipse cx="58" cy="65.788" rx="6.976800000000002" ry="14.212000000000003" fill="#e0525c" stroke="#7a1a26" stroke-width="1.2" transform="rotate(77.5 58 80)"/><path d="M58 80V56.744" stroke="#a4242f" stroke-width="1" opacity=".6" transform="rotate(77.5 58 80)"/><ellipse cx="58" cy="65.788" rx="6.976800000000002" ry="14.212000000000003" fill="#e0525c" stroke="#7a1a26" stroke-width="1.2" transform="rotate(122.5 58 80)"/><path d="M58 80V56.744" stroke="#a4242f" stroke-width="1" opacity=".6" transform="rotate(122.5 58 80)"/><ellipse cx="58" cy="65.788" rx="6.976800000000002" ry="14.212000000000003" fill="#e0525c" stroke="#7a1a26" stroke-width="1.2" transform="rotate(167.5 58 80)"/><path d="M58 80V56.744" stroke="#a4242f" stroke-width="1" opacity=".6" transform="rotate(167.5 58 80)"/><ellipse cx="58" cy="65.788" rx="6.976800000000002" ry="14.212000000000003" fill="#e0525c" stroke="#7a1a26" stroke-width="1.2" transform="rotate(212.5 58 80)"/><path d="M58 80V56.744" stroke="#a4242f" stroke-width="1" opacity=".6" transform="rotate(212.5 58 80)"/><ellipse cx="58" cy="65.788" rx="6.976800000000002" ry="14.212000000000003" fill="#e0525c" stroke="#7a1a26" stroke-width="1.2" transform="rotate(257.5 58 80)"/><path d="M58 80V56.744" stroke="#a4242f" stroke-width="1" opacity=".6" transform="rotate(257.5 58 80)"/><ellipse cx="58" cy="65.788" rx="6.976800000000002" ry="14.212000000000003" fill="#e0525c" stroke="#7a1a26" stroke-width="1.2" transform="rotate(302.5 58 80)"/><path d="M58 80V56.744" stroke="#a4242f" stroke-width="1" opacity=".6" transform="rotate(302.5 58 80)"/><ellipse cx="58" cy="65.788" rx="6.976800000000002" ry="14.212000000000003" fill="#e0525c" stroke="#7a1a26" stroke-width="1.2" transform="rotate(347.5 58 80)"/><path d="M58 80V56.744" stroke="#a4242f" stroke-width="1" opacity=".6" transform="rotate(347.5 58 80)"/><circle cx="58" cy="80" r="6.08" fill="#e8b93c" stroke="#a4761a"/><circle cx="61.42" cy="80.0" r="1.6" fill="#a4761a"/><circle cx="56.273426322268485" cy="82.95217603393915" r="1.6" fill="#a4761a"/><circle cx="56.32330799101481" cy="77.01921085834553" r="1.6" fill="#a4761a"/><ellipse cx="100" cy="32.5" rx="13.5" ry="27.500000000000004" fill="url(#pet)" stroke="#7a1a26" stroke-width="1.2" transform="rotate(0 100 60)"/><path d="M100 60V15.0" stroke="#a4242f" stroke-width="1" opacity=".6" transform="rotate(0 100 60)"/><ellipse cx="100" cy="32.5" rx="13.5" ry="27.500000000000004" fill="url(#pet)" stroke="#7a1a26" stroke-width="1.2" transform="rotate(45 100 60)"/><path d="M100 60V15.0" stroke="#a4242f" stroke-width="1" opacity=".6" transform="rotate(45 100 60)"/><ellipse cx="100" cy="32.5" rx="13.5" ry="27.500000000000004" fill="url(#pet)" stroke="#7a1a26" stroke-width="1.2" transform="rotate(90 100 60)"/><path d="M100 60V15.0" stroke="#a4242f" stroke-width="1" opacity=".6" transform="rotate(90 100 60)"/><ellipse cx="100" cy="32.5" rx="13.5" ry="27.500000000000004" fill="url(#pet)" stroke="#7a1a26" stroke-width="1.2" transform="rotate(135 100 60)"/><path d="M100 60V15.0" stroke="#a4242f" stroke-width="1" opacity=".6" transform="rotate(135 100 60)"/><ellipse cx="100" cy="32.5" rx="13.5" ry="27.500000000000004" fill="url(#pet)" stroke="#7a1a26" stroke-width="1.2" transform="rotate(180 100 60)"/><path d="M100 60V15.0" stroke="#a4242f" stroke-width="1" opacity=".6" transform="rotate(180 100 60)"/><ellipse cx="100" cy="32.5" rx="13.5" ry="27.500000000000004" fill="url(#pet)" stroke="#7a1a26" stroke-width="1.2" transform="rotate(225 100 60)"/><path d="M100 60V15.0" stroke="#a4242f" stroke-width="1" opacity=".6" transform="rotate(225 100 60)"/><ellipse cx="100" cy="32.5" rx="13.5" ry="27.500000000000004" fill="url(#pet)" stroke="#7a1a26" stroke-width="1.2" transform="rotate(270 100 60)"/><path d="M100 60V15.0" stroke="#a4242f" stroke-width="1" opacity=".6" transform="rotate(270 100 60)"/><ellipse cx="100" cy="32.5" rx="13.5" ry="27.500000000000004" fill="url(#pet)" stroke="#7a1a26" stroke-width="1.2" transform="rotate(315 100 60)"/><path d="M100 60V15.0" stroke="#a4242f" stroke-width="1" opacity=".6" transform="rotate(315 100 60)"/><ellipse cx="100" cy="41.3" rx="9.180000000000001" ry="18.700000000000003" fill="#e0525c" stroke="#7a1a26" stroke-width="1.2" transform="rotate(22.5 100 60)"/><path d="M100 60V29.4" stroke="#a4242f" stroke-width="1" opacity=".6" transform="rotate(22.5 100 60)"/><ellipse cx="100" cy="41.3" rx="9.180000000000001" ry="18.700000000000003" fill="#e0525c" stroke="#7a1a26" stroke-width="1.2" transform="rotate(67.5 100 60)"/><path d="M100 60V29.4" stroke="#a4242f" stroke-width="1" opacity=".6" transform="rotate(67.5 100 60)"/><ellipse cx="100" cy="41.3" rx="9.180000000000001" ry="18.700000000000003" fill="#e0525c" stroke="#7a1a26" stroke-width="1.2" transform="rotate(112.5 100 60)"/><path d="M100 60V29.4" stroke="#a4242f" stroke-width="1" opacity=".6" transform="rotate(112.5 100 60)"/><ellipse cx="100" cy="41.3" rx="9.180000000000001" ry="18.700000000000003" fill="#e0525c" stroke="#7a1a26" stroke-width="1.2" transform="rotate(157.5 100 60)"/><path d="M100 60V29.4" stroke="#a4242f" stroke-width="1" opacity=".6" transform="rotate(157.5 100 60)"/><ellipse cx="100" cy="41.3" rx="9.180000000000001" ry="18.700000000000003" fill="#e0525c" stroke="#7a1a26" stroke-width="1.2" transform="rotate(202.5 100 60)"/><path d="M100 60V29.4" stroke="#a4242f" stroke-width="1" opacity=".6" transform="rotate(202.5 100 60)"/><ellipse cx="100" cy="41.3" rx="9.180000000000001" ry="18.700000000000003" fill="#e0525c" stroke="#7a1a26" stroke-width="1.2" transform="rotate(247.5 100 60)"/><path d="M100 60V29.4" stroke="#a4242f" stroke-width="1" opacity=".6" transform="rotate(247.5 100 60)"/><ellipse cx="100" cy="41.3" rx="9.180000000000001" ry="18.700000000000003" fill="#e0525c" stroke="#7a1a26" stroke-width="1.2" transform="rotate(292.5 100 60)"/><path d="M100 60V29.4" stroke="#a4242f" stroke-width="1" opacity=".6" transform="rotate(292.5 100 60)"/><ellipse cx="100" cy="41.3" rx="9.180000000000001" ry="18.700000000000003" fill="#e0525c" stroke="#7a1a26" stroke-width="1.2" transform="rotate(337.5 100 60)"/><path d="M100 60V29.4" stroke="#a4242f" stroke-width="1" opacity=".6" transform="rotate(337.5 100 60)"/><circle cx="100" cy="60" r="8.0" fill="#e8b93c" stroke="#a4761a"/><circle cx="104.5" cy="60.0" r="1.6" fill="#a4761a"/><circle cx="97.72819252930064" cy="63.884442149919934" r="1.6" fill="#a4761a"/><circle cx="97.79382630396685" cy="56.077909024138854" r="1.6" fill="#a4761a"/></svg>