<svg xmlns="http://www.w3.org/2000/svg" viewBox="0 0 1200 520" preserveAspectRatio="xMidYMid slice"><defs><linearGradient id="s" x1="0" y1="0" x2="0" y2="1"><stop offset="0" stop-color="#141a44"/><stop offset="0.4" stop-color="#4a3a7a"/><stop offset="0.72" stop-color="#e07a6a"/><stop offset="1" stop-color="#ffd27a"/></linearGradient><radialGradient id="sun" cx="0.5" cy="0.5" r="0.5"><stop offset="0" stop-color="#fff6d0"/><stop offset="0.5" stop-color="#ffd27a"/><stop offset="1" stop-color="#ffb35a"/></radialGradient><radialGradient id="glow" cx="0.5" cy="0.5" r="0.5"><stop offset="0" stop-color="rgba(255,214,140,.65)"/><stop offset="1" stop-color="rgba(255,214,140,0)"/></radialGradient><pattern id="brick" width="60" height="26" patternUnits="userSpaceOnUse"><rect width="60" height="26" fill="#6a2f2a"/><path d="M0 13H60M0 0H60M30 0V13M0 13V26M60 13V26" stroke="#4a1d1a" stroke-width="2"/></pattern></defs><rect width="1200" height="520" fill="url(#s)"/><circle cx="272" cy="144" r="0.8" fill="#fff" opacity="0.81"/><circle cx="102" cy="37" r="1.9" fill="#fff" opacity="0.49"/><circle cx="770" cy="69" r="1.2" fill="#fff" opacity="0.67"/><circle cx="231" cy="125" r="0.7" fill="#fff" opacity="0.50"/><circle cx="24" cy="40" r="1.1" fill="#fff" opacity="0.94"/><circle cx="455" cy="17" r="0.9" fill="#fff" opacity="0.99"/><circle cx="76" cy="93" r="1.1" fill="#fff" opacity="0.78"/><circle cx="406" cy="104" r="1.2" fill="#fff" opacity="0.77"/><circle cx="1082" cy="87" r="0.8" fill="#fff" opacity="0.39"/><circle cx="1135" cy="73" r="0.9" fill="#fff" opacity="0.96"/><circle cx="695" cy="109" r="1.7" fill="#fff" opacity="0.54"/><circle cx="428" cy="132" r="0.8" fill="#fff" opacity="0.85"/><circle cx="117" cy="104" r="1.5" fill="#fff" opacity="0.97"/><circle cx="1012" cy="76" r="0.9" fill="#fff" opacity="0.45"/><circle cx="634" cy="76" r="0.7" fill="#fff" opacity="0.94"/><circle cx="609" cy="105" r="0.9" fill="#fff" opacity="0.51"/><circle cx="14" cy="51" r="0.9" fill="#fff" opacity="0.63"/><circle cx="452" cy="125" r="1.8" fill="#fff" opacity="0.46"/><circle cx="476" cy="25" r="1.5" fill="#fff" opacity="0.98"/><circle cx="242" cy="115" r="1.0" fill="#fff" opacity="0.36"/><circle cx="917" cy="51" r="0.8" fill="#fff" opacity="0.63"/><circle cx="278" cy="62" r="1.2" fill="#fff" opacity="0.62"/><circle cx="706" cy="43" r="0.7" fill="#fff" opacity="0.41"/><circle cx="128" cy="78" r="1.1" fill="#fff" opacity="0.88"/><circle cx="606" cy="106" r="1.9" fill="#fff" opacity="0.39"/><circle cx="20" cy="21" r="1.1" fill="#fff" opacity="0.72"/><circle cx="893" cy="53" r="1.9" fill="#fff" opacity="0.35"/><circle cx="1003" cy="32" r="1.7" fill="#fff" opacity="0.37"/><circle cx="1158" cy="114" r="1.9" fill="#fff" opacity="0.73"/><circle cx="213" cy="145" r="1.2" fill="#fff" opacity="0.40"/><circle cx="726" cy="75" r="1.2" fill="#fff" opacity="0.45"/><circle cx="146" cy="87" r="1.2" fill="#fff" opacity="0.43"/><circle cx="527" cy="109" r="1.5" fill="#fff" opacity="0.66"/><circle cx="473" cy="54" r="0.9" fill="#fff" opacity="0.48"/><circle cx="535" cy="16" r="1.5" fill="#fff" opacity="0.81"/><circle cx="734" cy="3" r="1.1" fill="#fff" opacity="0.63"/><circle cx="112" cy="145" r="1.6" fill="#fff" opacity="0.68"/><circle cx="846" cy="30" r="0.9" fill="#fff" opacity="0.69"/><circle cx="893" cy="97" r="0.6" fill="#fff" opacity="0.75"/><circle cx="1091" cy="111" r="1.8" fill="#fff" opacity="0.99"/><circle cx="600" cy="360" r="330" fill="url(#glow)"/><path d="M600 360L-277 160" stroke="#ffe6a8" stroke-opacity=".08" stroke-width="26"/><path d="M600 360L-211 -30" stroke="#ffe6a8" stroke-opacity=".08" stroke-width="26"/><path d="M600 360L-104 -201" stroke="#ffe6a8" stroke-opacity=".08" stroke-width="26"/><path d="M600 360L39 -344" stroke="#ffe6a8" stroke-opacity=".08" stroke-width="26"/><path d="M600 360L210 -451" stroke="#ffe6a8" stroke-opacity=".08" stroke-width="26"/><path d="M600 360L400 -517" stroke="#ffe6a8" stroke-opacity=".08" stroke-width="26"/><path d="M600 360L600 -540" stroke="#ffe6a8" stroke-opacity=".08" stroke-width="26"/><path d="M600 360L800 -517" stroke="#ffe6a8" stroke-opacity=".08" stroke-width="26"/><path d="M600 360L990 -451" stroke="#ffe6a8" stroke-opacity=".08" stroke-width="26"/><path d="M600 360L1161 -344" stroke="#ffe6a8" stroke-opacity=".08" stroke-width="26"/><path d="M600 360L1304 -201" stroke="#ffe6a8" stroke-opacity=".08" stroke-width="26"/><path d="M600 360L1411 -30" stroke="#ffe6a8" stroke-opacity=".08" stroke-width="26"/><path d="M600 360L1477 160" stroke="#ffe6a8" stroke-opacity=".08" stroke-width="26"/><circle cx="600" cy="360" r="96" fill="url(#sun)"/><rect x="0" y="234" width="73" height="206" fill="#2a2450"/><rect x="40" y="268" width="6" height="9" fill="#ffd27a" opacity="0.51"/><rect x="8" y="334" width="6" height="9" fill="#ffd27a" opacity="0.91"/><rect x="78" y="323" width="80" height="117" fill="#2a2450"/><rect x="102" y="335" width="6" height="9" fill="#ffd27a" opacity="0.97"/><rect x="158" y="245" width="67" height="195" fill="#2a2450"/><rect x="214" y="257" width="6" height="9" fill="#ffd27a" opacity="0.74"/><rect x="182" y="279" width="6" height="9" fill="#ffd27a" opacity="0.70"/><rect x="198" y="279" width="6" height="9" fill="#ffd27a" opacity="0.61"/><rect x="182" y="301" width="6" height="9" fill="#ffd27a" opacity="0.53"/><rect x="214" y="345" width="6" height="9" fill="#ffd27a" opacity="0.79"/><rect x="198" y="367" width="6" height="9" fill="#ffd27a" opacity="1.00"/><rect x="214" y="367" width="6" height="9" fill="#ffd27a" opacity="0.87"/><rect x="228" y="327" width="80" height="113" fill="#2a2450"/><rect x="268" y="339" width="6" height="9" fill="#ffd27a" opacity="0.99"/><rect x="236" y="361" width="6" height="9" fill="#ffd27a" opacity="0.78"/><rect x="312" y="294" width="65" height="146" fill="#2a2450"/><rect x="320" y="328" width="6" height="9" fill="#ffd27a" opacity="0.61"/><rect x="377" y="233" width="50" height="207" fill="#2a2450"/><rect x="385" y="245" width="6" height="9" fill="#ffd27a" opacity="0.89"/><rect x="385" y="289" width="6" height="9" fill="#ffd27a" opacity="0.54"/><rect x="430" y="240" width="77" height="200" fill="#2a2450"/><rect x="438" y="274" width="6" height="9" fill="#ffd27a" opacity="0.73"/><rect x="454" y="318" width="6" height="9" fill="#ffd27a" opacity="0.92"/><rect x="507" y="313" width="73" height="127" fill="#2a2450"/><rect x="547" y="369" width="6" height="9" fill="#ffd27a" opacity="0.63"/><rect x="586" y="254" width="69" height="186" fill="#2a2450"/><rect x="610" y="288" width="6" height="9" fill="#ffd27a" opacity="0.74"/><rect x="610" y="310" width="6" height="9" fill="#ffd27a" opacity="0.95"/><rect x="642" y="310" width="6" height="9" fill="#ffd27a" opacity="0.77"/><rect x="626" y="354" width="6" height="9" fill="#ffd27a" opacity="0.77"/><rect x="659" y="272" width="56" height="168" fill="#2a2450"/><rect x="699" y="328" width="6" height="9" fill="#ffd27a" opacity="0.87"/><rect x="717" y="310" width="60" height="130" fill="#2a2450"/><rect x="778" y="247" width="70" height="193" fill="#2a2450"/><rect x="802" y="281" width="6" height="9" fill="#ffd27a" opacity="0.72"/><rect x="818" y="347" width="6" height="9" fill="#ffd27a" opacity="0.62"/><rect x="851" y="212" width="88" height="228" fill="#2a2450"/><rect x="859" y="246" width="6" height="9" fill="#ffd27a" opacity="0.56"/><rect x="891" y="268" width="6" height="9" fill="#ffd27a" opacity="0.67"/><rect x="891" y="312" width="6" height="9" fill="#ffd27a" opacity="0.91"/><rect x="907" y="356" width="6" height="9" fill="#ffd27a" opacity="0.70"/><rect x="940" y="337" width="60" height="103" fill="#2a2450"/><rect x="948" y="349" width="6" height="9" fill="#ffd27a" opacity="0.78"/><rect x="964" y="349" width="6" height="9" fill="#ffd27a" opacity="0.84"/><rect x="1006" y="234" width="50" height="206" fill="#2a2450"/><rect x="1060" y="227" width="70" height="213" fill="#2a2450"/><rect x="1084" y="239" width="6" height="9" fill="#ffd27a" opacity="0.62"/><rect x="1084" y="305" width="6" height="9" fill="#ffd27a" opacity="0.55"/><rect x="1068" y="327" width="6" height="9" fill="#ffd27a" opacity="1.00"/><rect x="1068" y="371" width="6" height="9" fill="#ffd27a" opacity="0.95"/><rect x="1135" y="273" width="64" height="167" fill="#2a2450"/><rect x="1159" y="285" width="6" height="9" fill="#ffd27a" opacity="0.82"/><rect x="1175" y="307" width="6" height="9" fill="#ffd27a" opacity="0.53"/><rect x="1175" y="351" width="6" height="9" fill="#ffd27a" opacity="0.69"/><g transform="translate(360 150) scale(1.4 1.4)" opacity="1"><path d="M-26 6C-12-2 6-2 16 2l12-5-4 9c-6 7-22 11-36 7z" fill="#fff"/><path d="M-6 2C-4-14 6-28 24-34 16-20 12-6 6 4z" fill="#eef1ff"/><path d="M-10 3C-16-10-14-22-6-30-6-16-2-6 2 3z" fill="#dfe4ff"/><circle cx="19" cy="0" r="1.6" fill="#1a1f4a"/></g><g transform="translate(450 110) scale(0.9 0.9)" opacity="1"><path d="M-26 6C-12-2 6-2 16 2l12-5-4 9c-6 7-22 11-36 7z" fill="#fff"/><path d="M-6 2C-4-14 6-28 24-34 16-20 12-6 6 4z" fill="#eef1ff"/><path d="M-10 3C-16-10-14-22-6-30-6-16-2-6 2 3z" fill="#dfe4ff"/><circle cx="19" cy="0" r="1.6" fill="#1a1f4a"/></g><g transform="translate(820 130) scale(-1.2 1.2)" opacity="1"><path d="M-26 6C-12-2 6-2 16 2l12-5-4 9c-6 7-22 11-36 7z" fill="#fff"/><path d="M-6 2C-4-14 6-28 24-34 16-20 12-6 6 4z" fill="#eef1ff"/><path d="M-10 3C-16-10-14-22-6-30-6-16-2-6 2 3z" fill="#dfe4ff"/><circle cx="19" cy="0" r="1.6" fill="#1a1f4a"/></g><g transform="translate(900 190) scale(-0.7 0.7)" opacity="0.85"><path d="M-26 6C-12-2 6-2 16 2l12-5-4 9c-6 7-22 11-36 7z" fill="#fff"/><path d="M-6 2C-4-14 6-28 24-34 16-20 12-6 6 4z" fill="#eef1ff"/><path d="M-10 3C-16-10-14-22-6-30-6-16-2-6 2 3z" fill="#dfe4ff"/><circle cx="19" cy="0" r="1.6" fill="#1a1f4a"/></g><g transform="translate(260 210) scale(0.6 0.6)" opacity="0.7"><path d="M-26 6C-12-2 6-2 16 2l12-5-4 9c-6 7-22 11-36 7z" fill="#fff"/><path d="M-6 2C-4-14 6-28 24-34 16-20 12-6 6 4z" fill="#eef1ff"/><path d="M-10 3C-16-10-14-22-6-30-6-16-2-6 2 3z" fill="#dfe4ff"/><circle cx="19" cy="0" r="1.6" fill="#1a1f4a"/></g><rect y="372" width="1200" height="148" fill="url(#brick)"/><rect y="366" width="1200" height="10" fill="#8a4a3a"/><path d="M0-14c-5-6-14-2-14 5 0 7 14 14 14 14s14-7 14-14c0-7-9-11-14-5z" transform="translate(140 420) scale(1.4)" fill="#ffd36b" opacity=".35"/><path d="M0-14c-5-6-14-2-14 5 0 7 14 14 14 14s14-7 14-14c0-7-9-11-14-5z" transform="translate(1060 430) scale(1.2)" fill="#8fb4ff" opacity=".35"/><path d="M0-14c-5-6-14-2-14 5 0 7 14 14 14 14s14-7 14-14c0-7-9-11-14-5z" transform="translate(600 470) scale(1)" fill="#ff9ab8" opacity=".35"/><rect y="500" width="1200" height="20" fill="#2a1210"/></svg>